<?xml version="1.0" encoding="utf-8"?>
<!-- Generator: Adobe Illustrator 24.0.3, SVG Export Plug-In . SVG Version: 6.00 Build 0)  -->
<svg version="1.1" id="Layer_2" xmlns="http://www.w3.org/2000/svg" xmlns:xlink="http://www.w3.org/1999/xlink" x="0px" y="0px"
	 viewBox="0 0 2048 1024" style="enable-background:new 0 0 2048 1024;" xml:space="preserve">
<style type="text/css">
	.st0{fill:none;stroke:#000000;stroke-width:10;stroke-miterlimit:10;}
</style>
<path d="M518.89,649.64c1.41-2.25,1.98-3.1,2.49-3.98c38.86-67.2,77.68-134.43,116.65-201.56c3.81-6.56,1.5-7.68-4.81-7.65
	c-29.1,0.13-58.2,0.02-87.3,0.02c-46.64,0-93.28,0.12-139.92-0.1c-7.91-0.04-10.21,1.01-5.46,8.93
	c13.61,22.69,26.58,45.76,39.82,68.67C466.17,558.56,491.98,603.14,518.89,649.64z"/>
<path d="M646.95,441.17c-2.89,4.52-4.92,7.28-6.52,10.26c-12.19,22.66-24.93,45.1-38.09,67.12c-24.78,41.47-48.33,83.64-72.92,125.2
	c-1.2,2.04-3.99,4.03-2.76,6.4c1.67,3.21,5.11,1.32,7.67,0.98c25.5-3.44,51.1-6.82,76.62-9.22c33.66-3.16,67.19-7.56,100.85-10.57
	c7.4-0.66,10.29-2.45,6.84-10.82c-15.2-36.87-29.76-73.99-44.53-111.04C665.28,487.34,656.49,465.17,646.95,441.17z"/>
<path d="M391.28,440.66c-24.47,61.34-47.63,120.07-71.47,178.53c-4.02,9.86-0.76,11.4,7.92,12.34
	c58.5,6.34,116.95,13.03,175.43,19.53c2.87,0.32,6.18,2.19,8.91-1.47C472.26,580.73,432.45,511.86,391.28,440.66z"/>
<path d="M640.09,430.56c-2.24-3.24-3.33-5.05-4.64-6.69c-37.27-46.59-74.7-93.05-111.71-139.85c-5.7-7.21-7.55-2.09-10.5,1.6
	c-28.04,34.98-56.07,69.97-84.07,104.98c-10.23,12.79-20.36,25.66-31.7,39.96C479.26,430.56,558.77,430.56,640.09,430.56z"/>
<path d="M521.71,750.32c63.72-37.65,125.13-73.94,186.55-110.24c-0.39-0.82-0.77-1.63-1.16-2.45c-6.98,0.79-13.96,1.61-20.94,2.38
	c-51.96,5.75-103.91,11.55-155.89,17.18c-5.74,0.62-8.79,2.14-8.7,8.9C521.92,692.94,521.71,719.8,521.71,750.32z"/>
<path d="M330.51,637.72c-0.29,0.78-0.57,1.56-0.86,2.34c61.52,36.33,123.04,72.66,186.54,110.16c0-29.26-0.47-55.02,0.25-80.74
	c0.26-9.37-2.95-11.86-11.72-12.72c-36.88-3.61-73.69-7.99-110.53-12.06C372.96,642.35,351.74,640.05,330.51,637.72z"/>
<path d="M721.24,612.39c0.72-0.2,1.44-0.4,2.16-0.61c0.21-0.96,0.61-1.91,0.61-2.87c0.07-64.27,0.1-128.54,0.14-192.81
	c0-2.8-1.66-5.81-1.57-7.91c0.35-7.73-3.24-5.04-6.79-3.37c-18.2,8.55-36.24,17.46-54.66,25.51c-8.01,3.5-10.35,6.75-6.36,15.6
	c9.79,21.74,18.48,43.99,27.27,66.18C695.25,545.48,708.19,578.96,721.24,612.39z"/>
<path d="M315.58,401.85c0,70.22,0,139.2,0,208.19c4.26-6.61,7.47-13.52,10.11-20.64c10.02-27.07,21.06-53.76,31.53-80.64
	c8.52-21.89,17.25-43.85,26.81-65.38c1.67-3.76,4.04-7.59-2.06-10.39C360.23,423,338.64,412.7,315.58,401.85z"/>
<path d="M502.78,289.38c-0.57-0.49-1.13-0.99-1.7-1.48c-44.61,26.39-89.21,52.8-133.83,79.18c-13.06,7.72-26.11,15.46-39.27,23.01
	c-2.93,1.68-5.81,4.24-6.1,6.81c-0.32,2.85,4.05,3.26,6.5,4.44c17.49,8.38,35.24,16.26,52.48,25.15c7.27,3.75,10.99,1.93,15.62-3.99
	c19.22-24.56,38.91-48.73,58.39-73.08C470.87,329.43,486.81,309.4,502.78,289.38z"/>
<path d="M536.6,287.74c-1.4,2.37-0.18,3.28,0.69,4.3c25.8,30.15,48.96,62.42,75.32,92.23c10.95,12.38,21.22,26.33,30.75,40.33
	c3.13,4.59,6.18,5.42,11.39,2.87c18.68-9.17,37.49-18.08,56.49-26.56c7.26-3.24,4.49-6.14,0.69-9.39c-1.85-1.58-4.2-2.58-6.32-3.84
	c-30.35-17.97-60.71-35.94-91.07-53.89C588.57,318.43,562.58,303.09,536.6,287.74z"/>
<line class="st0" x1="809.77" y1="425.08" x2="1734.6" y2="425.08"/>
<g>
	<line class="st0" x1="809.77" y1="580.7" x2="1133.6" y2="580.7"/>
	<line class="st0" x1="1410.77" y1="580.7" x2="1734.6" y2="580.7"/>
</g>
<g>
	<path d="M876.48,517.44h-18.05v-9.66h18.37c7.71,0,12.72-1.17,15.02-3.5c2.3-2.34,3.45-7.22,3.45-14.65c0-5.31-0.57-9.13-1.7-11.47
		c-1.13-2.34-3.36-4-6.69-4.99c-3.33-0.99-8.71-1.49-16.14-1.49h-47.35v68.59h-9.66V466.9c0-3.25,1.59-4.88,4.78-4.88h52.45
		c9.48,0,16.65,0.89,21.5,2.65c4.85,1.77,8.16,4.58,9.93,8.44c1.77,3.86,2.65,9.57,2.65,17.15c0,7.22-0.78,12.71-2.34,16.46
		c-1.56,3.75-4.37,6.48-8.44,8.18C890.19,516.59,884.27,517.44,876.48,517.44z"/>
	<path d="M973.1,541.44h-15.18c-6.87,0-12.56-0.14-17.09-0.42c-4.53-0.28-8.48-0.92-11.84-1.91c-3.36-0.99-5.93-2.09-7.7-3.29
		c-1.77-1.2-3.19-3.01-4.25-5.42c-1.06-2.41-1.73-4.9-2.02-7.49c-0.28-2.58-0.42-6.03-0.42-10.35v-22.72
		c0-4.32,0.14-7.77,0.42-10.35c0.28-2.58,0.96-5.08,2.02-7.48c1.06-2.41,2.48-4.21,4.25-5.42c1.77-1.2,4.33-2.3,7.7-3.29
		c3.36-0.99,7.31-1.63,11.84-1.91c4.53-0.28,10.23-0.42,17.09-0.42h15.18c6.79,0,12.46,0.14,16.99,0.42
		c4.53,0.28,8.48,0.92,11.84,1.91c3.36,0.99,5.93,2.09,7.7,3.29c1.77,1.2,3.19,3.01,4.25,5.42c1.06,2.41,1.73,4.9,2.02,7.48
		c0.28,2.58,0.42,6.04,0.42,10.35v22.72c0,4.32-0.14,7.77-0.42,10.35c-0.28,2.58-0.96,5.08-2.02,7.49
		c-1.06,2.41-2.48,4.21-4.25,5.42c-1.77,1.2-4.34,2.3-7.7,3.29c-3.36,0.99-7.31,1.63-11.84,1.91
		C985.55,541.29,979.89,541.44,973.1,541.44z M1006.65,512.56v-22.72c0-2.48-0.04-4.39-0.11-5.73c-0.07-1.34-0.28-2.8-0.64-4.35
		c-0.35-1.56-0.8-2.69-1.33-3.4c-0.53-0.71-1.4-1.49-2.6-2.34c-1.2-0.85-2.53-1.43-3.98-1.75c-1.45-0.32-3.45-0.62-6-0.9
		c-2.55-0.28-5.26-0.46-8.12-0.53c-2.87-0.07-6.46-0.11-10.78-0.11h-15.18c-5.8,0-10.42,0.05-13.86,0.16
		c-3.43,0.11-6.51,0.48-9.24,1.12c-2.73,0.64-4.71,1.27-5.95,1.91c-1.24,0.64-2.27,1.82-3.08,3.56c-0.81,1.74-1.27,3.42-1.38,5.04
		c-0.11,1.63-0.16,4.07-0.16,7.33v22.72c0,2.41,0.03,4.3,0.11,5.68c0.07,1.38,0.28,2.83,0.64,4.35c0.35,1.52,0.8,2.65,1.33,3.4
		s1.4,1.54,2.6,2.39c1.2,0.85,2.55,1.42,4.03,1.7c1.49,0.28,3.49,0.58,6,0.9c2.51,0.32,5.22,0.51,8.12,0.58
		c2.9,0.07,6.51,0.11,10.83,0.11h15.18c4.32,0,7.91-0.04,10.78-0.11c2.87-0.07,5.56-0.27,8.07-0.58c2.51-0.32,4.51-0.62,6-0.9
		c1.49-0.28,2.83-0.85,4.03-1.7c1.2-0.85,2.07-1.65,2.6-2.39s0.97-1.88,1.33-3.4c0.35-1.52,0.57-2.97,0.64-4.35
		C1006.61,516.86,1006.65,514.96,1006.65,512.56z"/>
	<path d="M1103.05,540.27h-67.84c-3.19,0-4.78-1.66-4.78-4.99v-73.26h9.66v68.59h62.96V540.27z"/>
	<path d="M1147.96,540.27h-9.66v-27.92l-45.65-45.65l6.79-6.9l47.04,47.03c0.99,1.13,1.49,2.27,1.49,3.4V540.27z M1201.16,466.58
		l-38.01,37.59l-6.9-6.79l37.9-37.59L1201.16,466.58z"/>
	<path d="M1219.63,540.27h-9.66v-78.25h9.66V540.27z M1290.24,504.27h-63.81v-9.66h63.81V504.27z M1306.91,540.27h-9.66v-78.25h9.66
		V540.27z"/>
	<path d="M1399.49,540.27h-72.09c-3.19,0-4.78-1.66-4.78-4.99V466.9c0-3.25,1.59-4.88,4.78-4.88h71.99v9.66h-67.1v58.93h67.21
		V540.27z M1396.73,502.79h-10.19v-9.66h10.19V502.79z"/>
	<path d="M1469.99,540.27h-53.41c-3.26,0-4.88-1.66-4.88-4.99V466.9c0-3.25,1.63-4.88,4.88-4.88h53.41c6.86,0,12.56,0.14,17.09,0.42
		c4.53,0.28,8.48,0.92,11.84,1.91c3.36,0.99,5.93,2.09,7.7,3.29c1.77,1.2,3.18,3.01,4.25,5.42c1.06,2.41,1.73,4.9,2.02,7.49
		c0.28,2.58,0.42,6.04,0.42,10.35v20.49c0,4.32-0.14,7.77-0.42,10.35c-0.28,2.58-0.96,5.08-2.02,7.49
		c-1.06,2.41-2.48,4.21-4.25,5.42c-1.77,1.2-4.34,2.3-7.7,3.29c-3.36,0.99-7.31,1.63-11.84,1.91
		C1482.55,540.13,1476.85,540.27,1469.99,540.27z M1503.64,511.39V490.9c0-2.41-0.04-4.3-0.11-5.68c-0.07-1.38-0.28-2.85-0.64-4.41
		c-0.36-1.56-0.8-2.69-1.33-3.4c-0.53-0.71-1.4-1.49-2.6-2.34c-1.2-0.85-2.55-1.43-4.04-1.75c-1.49-0.32-3.49-0.64-6-0.96
		c-2.51-0.32-5.22-0.51-8.12-0.58c-2.9-0.07-6.51-0.11-10.83-0.11h-48.52v58.82h48.52c5.8,0,10.42-0.05,13.86-0.16
		c3.43-0.11,6.51-0.48,9.24-1.12c2.72-0.64,4.71-1.27,5.95-1.91c1.24-0.64,2.26-1.82,3.08-3.56c0.81-1.73,1.27-3.41,1.38-5.04
		C1503.59,517.09,1503.64,514.64,1503.64,511.39z"/>
	<path d="M1620.33,540.27h-9.56v-15.71c0-1.77-0.02-3.15-0.05-4.14c-0.04-0.99-0.2-1.93-0.48-2.81c-0.28-0.88-0.53-1.5-0.74-1.86
		c-0.21-0.35-0.74-0.76-1.59-1.22c-0.85-0.46-1.61-0.78-2.28-0.96c-0.67-0.18-1.79-0.48-3.34-0.9c-2.12-0.57-3.18-1.91-3.18-4.03
		c0-2.19,0.92-3.57,2.76-4.14c3.47-1.06,5.77-1.93,6.9-2.6c1.13-0.67,1.95-1.72,2.44-3.13c0.49-1.42,0.74-3.86,0.74-7.33
		c0-3.25-0.09-5.87-0.27-7.86c-0.18-1.98-0.67-3.79-1.49-5.42c-0.81-1.63-1.72-2.81-2.71-3.56c-0.99-0.74-2.64-1.36-4.94-1.86
		c-2.3-0.49-4.71-0.8-7.22-0.9c-2.51-0.11-6-0.16-10.46-0.16h-47.67v68.59h-9.77V466.9c0-3.25,1.66-4.88,4.99-4.88h51.28
		c8.21,0,14.67,0.35,19.38,1.06c4.71,0.71,8.51,2.09,11.41,4.14c2.9,2.05,4.81,4.65,5.73,7.8c0.92,3.15,1.38,7.45,1.38,12.9
		c0,6.51-0.6,11.17-1.81,13.96c-1.2,2.8-3.22,5.11-6.05,6.95c2.05,1.63,3.66,3.49,4.83,5.57c1.17,2.09,1.75,5.04,1.75,8.87V540.27z"
		/>
	<path d="M1737.12,537.93l-8.49,4.57l-40.03-70.82h-9.98l-40.03,70.82l-8.49-4.57l41.51-73.37c0.99-1.7,2.41-2.55,4.25-2.55h15.71
		c1.84,0,3.22,0.85,4.14,2.55L1737.12,537.93z M1688.6,502.79h-10.09v-9.66h10.09V502.79z"/>
</g>
<g>
	<path d="M1194.07,580.76v3.73c0,1.67-0.05,3-0.16,4s-0.37,1.96-0.78,2.89c-0.41,0.93-0.96,1.63-1.64,2.09s-1.67,0.89-2.97,1.27
		c-1.3,0.38-2.82,0.63-4.57,0.74c-1.75,0.11-3.94,0.16-6.56,0.16h-4.59c-2.65,0-4.85-0.06-6.6-0.16c-1.75-0.11-3.27-0.36-4.57-0.74
		c-1.3-0.38-2.29-0.81-2.97-1.27c-0.68-0.46-1.23-1.16-1.64-2.09c-0.41-0.93-0.67-1.89-0.78-2.89s-0.16-2.33-0.16-4v-8.77
		c0-1.67,0.05-3,0.16-4c0.11-1,0.37-1.96,0.78-2.89c0.41-0.93,0.96-1.63,1.64-2.09c0.68-0.46,1.67-0.89,2.97-1.27
		c1.3-0.38,2.82-0.63,4.57-0.74s3.95-0.16,6.6-0.16h4.59c2.62,0,4.81,0.05,6.56,0.16s3.27,0.36,4.57,0.74s2.29,0.81,2.97,1.27
		c0.68,0.46,1.23,1.16,1.64,2.09c0.41,0.93,0.67,1.89,0.78,2.89c0.11,1,0.16,2.33,0.16,4h-3.73c0-1.26-0.02-2.2-0.06-2.83
		s-0.22-1.28-0.53-1.95c-0.31-0.67-0.7-1.13-1.17-1.37s-1.22-0.49-2.28-0.74c-1.05-0.25-2.24-0.39-3.57-0.43
		c-1.33-0.04-3.11-0.06-5.35-0.06h-4.59c-2.24,0-4.03,0.02-5.35,0.06c-1.33,0.04-2.52,0.18-3.57,0.43c-1.05,0.25-1.82,0.49-2.3,0.74
		c-0.48,0.25-0.88,0.7-1.19,1.37c-0.31,0.67-0.49,1.32-0.53,1.95s-0.06,1.57-0.06,2.83v8.77c0,0.93,0.01,1.66,0.04,2.19
		c0.03,0.53,0.11,1.09,0.25,1.68s0.31,1.02,0.51,1.31s0.54,0.59,1,0.92c0.46,0.33,0.98,0.55,1.56,0.66
		c0.57,0.11,1.35,0.22,2.32,0.35c0.97,0.12,2.02,0.2,3.14,0.23c1.12,0.03,2.51,0.04,4.18,0.04h4.59c1.67,0,3.06-0.01,4.18-0.04
		c1.12-0.03,2.17-0.1,3.14-0.23c0.97-0.12,1.74-0.24,2.32-0.35s1.09-0.33,1.54-0.66c0.45-0.33,0.78-0.63,0.98-0.9
		c0.21-0.27,0.38-0.72,0.51-1.33c0.14-0.62,0.22-1.17,0.25-1.68c0.03-0.5,0.04-1.24,0.04-2.19v-1.8h-14.47v-3.73h16.32
		c0.71,0,1.2,0.13,1.48,0.39C1193.93,579.6,1194.07,580.08,1194.07,580.76z"/>
	<path d="M1237.16,594.29l-3.28,1.76l-15.46-27.35h-3.85l-15.46,27.35l-3.28-1.76l16.03-28.33c0.38-0.66,0.93-0.98,1.64-0.98h6.07
		c0.71,0,1.24,0.33,1.6,0.98L1237.16,594.29z M1218.42,580.72h-3.9v-3.73h3.9V580.72z"/>
	<path d="M1290.17,595.19h-3.73V568.7h-4.71l-14.56,23.21c-0.49,0.74-1.02,1.11-1.6,1.11s-1.11-0.37-1.6-1.11l-14.88-23.21h-4.63
		v26.49h-3.73v-28.33c0-1.26,0.64-1.89,1.93-1.89h7.54c0.68,0,1.2,0.29,1.56,0.86l13.82,21.57l13.57-21.53
		c0.38-0.6,0.9-0.9,1.56-0.9h7.58c1.26,0,1.89,0.63,1.89,1.89V595.19z"/>
	<path d="M1325.92,595.19h-27.84c-1.23,0-1.84-0.64-1.84-1.93v-26.4c0-1.26,0.62-1.89,1.84-1.89h27.8v3.73h-25.91v22.75h25.95
		V595.19z M1324.86,580.72h-3.94v-3.73h3.94V580.72z"/>
	<path d="M1365.41,585.19v1.84c0,1.45-0.12,2.62-0.35,3.53c-0.23,0.9-0.63,1.71-1.21,2.42s-1.44,1.24-2.58,1.6
		c-1.15,0.36-2.54,0.62-4.18,0.8c-1.64,0.18-3.73,0.27-6.27,0.27h-6.23c-4.13,0-7.2-0.26-9.22-0.78c-2.02-0.52-3.42-1.4-4.18-2.64
		c-0.77-1.24-1.15-3.14-1.15-5.68v-1.02h3.73v0.94c0,1.23,0.12,2.18,0.35,2.85c0.23,0.67,0.77,1.21,1.62,1.62
		c0.85,0.41,1.91,0.67,3.18,0.78c1.27,0.11,3.12,0.16,5.55,0.16h6.27c3.25,0,5.62-0.12,7.09-0.37c1.48-0.25,2.49-0.68,3.03-1.31
		s0.82-1.64,0.82-3.03v-1.64c0-1.39-0.46-2.32-1.37-2.77s-2.86-0.68-5.84-0.68c-1.09,0-3.05,0.04-5.86,0.1
		c-2.82,0.07-4.83,0.1-6.03,0.1c-1.64,0-3.03-0.05-4.16-0.14c-1.13-0.1-2.25-0.3-3.34-0.62c-1.09-0.31-1.97-0.75-2.62-1.31
		c-0.66-0.56-1.18-1.32-1.58-2.28c-0.4-0.96-0.59-2.12-0.59-3.49v-1.72c0-2.24,0.38-3.92,1.15-5.02c0.76-1.11,2.15-1.91,4.16-2.4
		c2.01-0.49,5.04-0.74,9.08-0.74h5.9c5.79,0,9.7,0.51,11.73,1.52c2.02,1.01,3.03,3.03,3.03,6.07v0.86h-3.73v-0.53
		c0-1.69-0.74-2.81-2.21-3.34c-1.48-0.53-4.39-0.8-8.73-0.8h-6.19c-3.06,0-5.29,0.11-6.68,0.33c-1.39,0.22-2.37,0.63-2.93,1.23
		c-0.56,0.6-0.84,1.54-0.84,2.83v1.68c0,1.64,0.55,2.74,1.64,3.3c1.09,0.56,3.43,0.84,7.01,0.84c1.31,0,3.67-0.04,7.07-0.12
		c3.4-0.08,5.49-0.12,6.25-0.12c1.45,0,2.69,0.09,3.71,0.27c1.03,0.18,2,0.5,2.93,0.96c0.93,0.46,1.63,1.17,2.09,2.11
		C1365.17,582.58,1365.41,583.77,1365.41,585.19z"/>
</g>
</svg>
