<?xml version="1.0" encoding="utf-8"?>
<!-- Generator: Adobe Illustrator 24.0.3, SVG Export Plug-In . SVG Version: 6.00 Build 0)  -->
<svg version="1.1" id="Layer_2" xmlns="http://www.w3.org/2000/svg" xmlns:xlink="http://www.w3.org/1999/xlink" x="0px" y="0px"
	 viewBox="0 0 2048 1024" style="enable-background:new 0 0 2048 1024;" xml:space="preserve">
<style type="text/css">
	.st0{fill:#FFFFFF;stroke:#FFFFFF;stroke-miterlimit:10;}
	.st1{fill:#FFFFFF;stroke:#FFFFFF;stroke-width:10;stroke-miterlimit:10;}
	.st2{font-family:'VDub-Regular';}
	.st3{font-size:106.1737px;}
	.st4{font-size:45.3757px;}
</style>
<g>
	<path class="st0" d="M518.89,649.64c1.41-2.25,1.98-3.1,2.49-3.98c38.86-67.2,77.68-134.43,116.65-201.56
		c3.81-6.56,1.5-7.68-4.81-7.65c-29.1,0.13-58.2,0.02-87.3,0.02c-46.64,0-93.28,0.12-139.92-0.1c-7.91-0.04-10.21,1.01-5.46,8.93
		c13.61,22.69,26.58,45.76,39.82,68.67C466.17,558.56,491.98,603.14,518.89,649.64z"/>
	<path class="st0" d="M646.95,441.17c-2.89,4.52-4.92,7.28-6.52,10.26c-12.19,22.66-24.93,45.1-38.09,67.12
		c-24.78,41.47-48.33,83.64-72.92,125.2c-1.2,2.04-3.99,4.03-2.76,6.4c1.67,3.21,5.11,1.32,7.67,0.98
		c25.5-3.44,51.1-6.82,76.62-9.22c33.66-3.16,67.19-7.56,100.85-10.57c7.4-0.66,10.29-2.45,6.84-10.82
		c-15.2-36.87-29.76-73.99-44.53-111.04C665.28,487.34,656.49,465.17,646.95,441.17z"/>
	<path class="st0" d="M391.28,440.66c-24.47,61.34-47.63,120.07-71.47,178.53c-4.02,9.86-0.76,11.4,7.92,12.34
		c58.5,6.34,116.95,13.03,175.43,19.53c2.87,0.32,6.18,2.19,8.91-1.47C472.26,580.73,432.45,511.86,391.28,440.66z"/>
	<path class="st0" d="M640.09,430.56c-2.24-3.24-3.33-5.05-4.64-6.69c-37.27-46.59-74.7-93.05-111.71-139.85
		c-5.7-7.21-7.55-2.09-10.5,1.6c-28.04,34.98-56.07,69.97-84.07,104.98c-10.23,12.79-20.36,25.66-31.7,39.96
		C479.26,430.56,558.77,430.56,640.09,430.56z"/>
	<path class="st0" d="M521.71,750.32c63.72-37.65,125.13-73.94,186.55-110.24c-0.39-0.82-0.77-1.63-1.16-2.45
		c-6.98,0.79-13.96,1.61-20.94,2.38c-51.96,5.75-103.91,11.55-155.89,17.18c-5.74,0.62-8.79,2.14-8.7,8.9
		C521.92,692.94,521.71,719.8,521.71,750.32z"/>
	<path class="st0" d="M330.51,637.72c-0.29,0.78-0.57,1.56-0.86,2.34c61.52,36.33,123.04,72.66,186.54,110.16
		c0-29.26-0.47-55.02,0.25-80.74c0.26-9.37-2.95-11.86-11.72-12.72c-36.88-3.61-73.69-7.99-110.53-12.06
		C372.96,642.35,351.74,640.05,330.51,637.72z"/>
	<path class="st0" d="M721.24,612.39c0.72-0.2,1.44-0.4,2.16-0.61c0.21-0.96,0.61-1.91,0.61-2.87c0.07-64.27,0.1-128.54,0.14-192.81
		c0-2.8-1.66-5.81-1.57-7.91c0.35-7.73-3.24-5.04-6.79-3.37c-18.2,8.55-36.24,17.46-54.66,25.51c-8.01,3.5-10.35,6.75-6.36,15.6
		c9.79,21.74,18.48,43.99,27.27,66.18C695.25,545.48,708.19,578.96,721.24,612.39z"/>
	<path class="st0" d="M315.58,401.85c0,70.22,0,139.2,0,208.19c4.26-6.61,7.47-13.52,10.11-20.64
		c10.02-27.07,21.06-53.76,31.53-80.64c8.52-21.89,17.25-43.85,26.81-65.38c1.67-3.76,4.04-7.59-2.06-10.39
		C360.23,423,338.64,412.7,315.58,401.85z"/>
	<path class="st0" d="M502.78,289.38c-0.57-0.49-1.13-0.99-1.7-1.48c-44.61,26.39-89.21,52.8-133.83,79.18
		c-13.06,7.72-26.11,15.46-39.27,23.01c-2.93,1.68-5.81,4.24-6.1,6.81c-0.32,2.85,4.05,3.26,6.5,4.44
		c17.49,8.38,35.24,16.26,52.48,25.15c7.27,3.75,10.99,1.93,15.62-3.99c19.22-24.56,38.91-48.73,58.39-73.08
		C470.87,329.43,486.81,309.4,502.78,289.38z"/>
	<path class="st0" d="M536.6,287.74c-1.4,2.37-0.18,3.28,0.69,4.3c25.8,30.15,48.96,62.42,75.32,92.23
		c10.95,12.38,21.22,26.33,30.75,40.33c3.13,4.59,6.18,5.42,11.39,2.87c18.68-9.17,37.49-18.08,56.49-26.56
		c7.26-3.24,4.49-6.14,0.69-9.39c-1.85-1.58-4.2-2.58-6.32-3.84c-30.35-17.97-60.71-35.94-91.07-53.89
		C588.57,318.43,562.58,303.09,536.6,287.74z"/>
</g>
<g>
	<line class="st1" x1="809.77" y1="425.08" x2="1734.6" y2="425.08"/>
	<g>
		<line class="st1" x1="809.77" y1="580.7" x2="1133.6" y2="580.7"/>
		<line class="st1" x1="1410.77" y1="580.7" x2="1734.6" y2="580.7"/>
	</g>
	<text transform="matrix(1 0 0 1 805.8741 540.2672)" class="st0 st2 st3">polyhedra</text>
	<text transform="matrix(1 0 0 1 1153.6436 595.1906)" class="st0 st2 st4">games</text>
</g>
</svg>
