<?xml version="1.0" encoding="utf-8"?>
<!-- Generator: Adobe Illustrator 24.0.3, SVG Export Plug-In . SVG Version: 6.00 Build 0)  -->
<svg version="1.1" id="Layer_2" xmlns="http://www.w3.org/2000/svg" xmlns:xlink="http://www.w3.org/1999/xlink" x="0px" y="0px"
	 viewBox="0 0 2048 1024" style="enable-background:new 0 0 2048 1024;" xml:space="preserve">
<style type="text/css">
	.st0{fill:#FFFFFF;stroke:#FFFFFF;stroke-width:10;stroke-miterlimit:10;}
	.st1{fill:#FFFFFF;stroke:#FFFFFF;stroke-miterlimit:10;}
	.st2{fill:#FFFFFF;}
</style>
<g>
	<line class="st0" x1="561.59" y1="705.27" x2="1486.41" y2="705.27"/>
	<g>
		<line class="st0" x1="561.59" y1="860.89" x2="885.41" y2="860.89"/>
		<line class="st0" x1="1162.59" y1="860.89" x2="1486.41" y2="860.89"/>
	</g>
	<g>
		<path class="st1" d="M628.29,797.62h-18.05v-9.66h18.37c7.71,0,12.72-1.17,15.02-3.5c2.3-2.34,3.45-7.22,3.45-14.65
			c0-5.31-0.57-9.13-1.7-11.47c-1.13-2.33-3.36-4-6.69-4.99c-3.33-0.99-8.71-1.49-16.14-1.49h-47.35v68.59h-9.66v-73.37
			c0-3.25,1.59-4.88,4.78-4.88h52.45c9.48,0,16.65,0.89,21.5,2.65c4.85,1.77,8.16,4.58,9.93,8.44c1.77,3.86,2.65,9.57,2.65,17.15
			c0,7.22-0.78,12.71-2.34,16.46c-1.56,3.75-4.37,6.48-8.44,8.17C642.01,796.77,636.08,797.62,628.29,797.62z"/>
		<path class="st1" d="M724.91,821.62h-15.18c-6.87,0-12.56-0.14-17.09-0.42c-4.53-0.28-8.48-0.92-11.84-1.91
			c-3.36-0.99-5.93-2.09-7.7-3.29c-1.77-1.2-3.19-3.01-4.25-5.42c-1.06-2.41-1.73-4.9-2.02-7.49c-0.28-2.58-0.42-6.03-0.42-10.35
			v-22.72c0-4.32,0.14-7.77,0.42-10.35c0.28-2.58,0.96-5.08,2.02-7.48c1.06-2.41,2.48-4.21,4.25-5.42c1.77-1.2,4.33-2.3,7.7-3.29
			c3.36-0.99,7.31-1.63,11.84-1.91c4.53-0.28,10.23-0.42,17.09-0.42h15.18c6.79,0,12.46,0.14,16.99,0.42
			c4.53,0.28,8.48,0.92,11.84,1.91c3.36,0.99,5.93,2.09,7.7,3.29c1.77,1.2,3.19,3.01,4.25,5.42c1.06,2.41,1.73,4.9,2.02,7.48
			c0.28,2.58,0.42,6.04,0.42,10.35v22.72c0,4.32-0.14,7.77-0.42,10.35c-0.28,2.58-0.96,5.08-2.02,7.49
			c-1.06,2.41-2.48,4.21-4.25,5.42c-1.77,1.2-4.34,2.3-7.7,3.29c-3.36,0.99-7.31,1.63-11.84,1.91
			C737.37,821.48,731.71,821.62,724.91,821.62z M758.46,792.74v-22.72c0-2.48-0.04-4.39-0.11-5.73c-0.07-1.34-0.28-2.8-0.64-4.35
			c-0.35-1.56-0.8-2.69-1.33-3.4c-0.53-0.71-1.4-1.49-2.6-2.34c-1.2-0.85-2.53-1.43-3.98-1.75c-1.45-0.32-3.45-0.62-6-0.9
			c-2.55-0.28-5.26-0.46-8.12-0.53c-2.87-0.07-6.46-0.11-10.78-0.11h-15.18c-5.8,0-10.42,0.05-13.86,0.16
			c-3.43,0.11-6.51,0.48-9.24,1.12c-2.73,0.64-4.71,1.27-5.95,1.91c-1.24,0.64-2.27,1.82-3.08,3.56c-0.81,1.74-1.27,3.42-1.38,5.04
			c-0.11,1.63-0.16,4.07-0.16,7.33v22.72c0,2.41,0.03,4.3,0.11,5.68c0.07,1.38,0.28,2.83,0.64,4.35c0.35,1.52,0.8,2.65,1.33,3.4
			s1.4,1.54,2.6,2.39c1.2,0.85,2.55,1.42,4.03,1.7c1.49,0.28,3.49,0.58,6,0.9c2.51,0.32,5.22,0.51,8.12,0.58
			c2.9,0.07,6.51,0.11,10.83,0.11h15.18c4.32,0,7.91-0.04,10.78-0.11c2.87-0.07,5.56-0.27,8.07-0.58c2.51-0.32,4.51-0.62,6-0.9
			c1.49-0.28,2.83-0.85,4.03-1.7c1.2-0.85,2.07-1.65,2.6-2.39s0.97-1.88,1.33-3.4c0.35-1.52,0.57-2.97,0.64-4.35
			C758.42,797.04,758.46,795.15,758.46,792.74z"/>
		<path class="st1" d="M854.87,820.45h-67.84c-3.19,0-4.78-1.66-4.78-4.99V742.2h9.66v68.59h62.96V820.45z"/>
		<path class="st1" d="M899.78,820.45h-9.66v-27.92l-45.65-45.66l6.79-6.9l47.04,47.03c0.99,1.13,1.49,2.27,1.49,3.4V820.45z
			 M952.97,746.77l-38.01,37.58l-6.9-6.79l37.9-37.58L952.97,746.77z"/>
		<path class="st1" d="M971.44,820.45h-9.66V742.2h9.66V820.45z M1042.05,784.46h-63.81v-9.66h63.81V784.46z M1058.72,820.45h-9.66
			V742.2h9.66V820.45z"/>
		<path class="st1" d="M1151.3,820.45h-72.09c-3.19,0-4.78-1.66-4.78-4.99v-68.38c0-3.25,1.59-4.88,4.78-4.88h71.99v9.66h-67.1
			v58.93h67.21V820.45z M1148.54,782.97h-10.19v-9.66h10.19V782.97z"/>
		<path class="st1" d="M1221.8,820.45h-53.41c-3.26,0-4.88-1.66-4.88-4.99v-68.38c0-3.25,1.63-4.88,4.88-4.88h53.41
			c6.86,0,12.56,0.14,17.09,0.42c4.53,0.28,8.48,0.92,11.84,1.91c3.36,0.99,5.93,2.09,7.7,3.29c1.77,1.2,3.18,3.01,4.25,5.42
			c1.06,2.41,1.73,4.9,2.02,7.49c0.28,2.58,0.42,6.04,0.42,10.35v20.49c0,4.32-0.14,7.77-0.42,10.35c-0.28,2.58-0.96,5.08-2.02,7.49
			c-1.06,2.41-2.48,4.21-4.25,5.42c-1.77,1.2-4.34,2.3-7.7,3.29c-3.36,0.99-7.31,1.63-11.84,1.91
			C1234.36,820.31,1228.66,820.45,1221.8,820.45z M1255.46,791.57v-20.49c0-2.41-0.04-4.3-0.11-5.68c-0.07-1.38-0.28-2.85-0.64-4.41
			c-0.36-1.56-0.8-2.69-1.33-3.4c-0.53-0.71-1.4-1.49-2.6-2.33c-1.2-0.85-2.55-1.43-4.04-1.75c-1.49-0.32-3.49-0.64-6-0.96
			c-2.51-0.32-5.22-0.51-8.12-0.58c-2.9-0.07-6.51-0.11-10.83-0.11h-48.52v58.82h48.52c5.8,0,10.42-0.05,13.86-0.16
			c3.43-0.11,6.51-0.48,9.24-1.12c2.72-0.64,4.71-1.27,5.95-1.91c1.24-0.64,2.26-1.82,3.08-3.56c0.81-1.73,1.27-3.41,1.38-5.04
			C1255.4,797.27,1255.46,794.83,1255.46,791.57z"/>
		<path class="st1" d="M1372.14,820.45h-9.56v-15.71c0-1.77-0.02-3.15-0.05-4.14c-0.04-0.99-0.2-1.93-0.48-2.81
			c-0.28-0.88-0.53-1.5-0.74-1.86c-0.21-0.35-0.74-0.76-1.59-1.22c-0.85-0.46-1.61-0.78-2.28-0.96c-0.67-0.18-1.79-0.48-3.34-0.9
			c-2.12-0.57-3.18-1.91-3.18-4.03c0-2.19,0.92-3.57,2.76-4.14c3.47-1.06,5.77-1.93,6.9-2.6c1.13-0.67,1.95-1.72,2.44-3.13
			c0.49-1.42,0.74-3.86,0.74-7.33c0-3.25-0.09-5.88-0.27-7.86c-0.18-1.98-0.67-3.79-1.49-5.42c-0.81-1.63-1.72-2.81-2.71-3.56
			c-0.99-0.74-2.64-1.36-4.94-1.86c-2.3-0.5-4.71-0.8-7.22-0.9c-2.51-0.11-6-0.16-10.46-0.16h-47.67v68.59h-9.77v-73.37
			c0-3.25,1.66-4.88,4.99-4.88h51.28c8.21,0,14.67,0.35,19.38,1.06c4.71,0.71,8.51,2.09,11.41,4.14c2.9,2.05,4.81,4.66,5.73,7.8
			c0.92,3.15,1.38,7.45,1.38,12.9c0,6.51-0.6,11.17-1.81,13.96c-1.2,2.8-3.22,5.11-6.05,6.95c2.05,1.63,3.66,3.49,4.83,5.57
			c1.17,2.09,1.75,5.04,1.75,8.87V820.45z"/>
		<path class="st1" d="M1488.93,818.12l-8.49,4.57l-40.03-70.82h-9.98l-40.03,70.82l-8.49-4.57l41.51-73.37
			c0.99-1.7,2.41-2.55,4.25-2.55h15.71c1.84,0,3.22,0.85,4.14,2.55L1488.93,818.12z M1440.41,782.97h-10.09v-9.66h10.09V782.97z"/>
	</g>
	<g>
		<path class="st1" d="M950.2,859.4v4.13c0,1.85-0.06,3.32-0.18,4.42c-0.12,1.1-0.41,2.17-0.86,3.2c-0.45,1.03-1.06,1.8-1.82,2.31
			c-0.76,0.52-1.85,0.98-3.29,1.41s-3.12,0.7-5.06,0.82s-4.36,0.18-7.26,0.18h-5.08c-2.93,0-5.37-0.06-7.31-0.18
			c-1.94-0.12-3.62-0.39-5.06-0.82s-2.53-0.89-3.29-1.41c-0.76-0.51-1.36-1.29-1.82-2.31s-0.74-2.09-0.86-3.2
			c-0.12-1.1-0.18-2.58-0.18-4.42v-9.71c0-1.84,0.06-3.32,0.18-4.42c0.12-1.1,0.41-2.17,0.86-3.2c0.45-1.03,1.06-1.8,1.82-2.31
			c0.76-0.51,1.85-0.98,3.29-1.41c1.44-0.42,3.12-0.7,5.06-0.82c1.94-0.12,4.37-0.18,7.31-0.18h5.08c2.9,0,5.32,0.06,7.26,0.18
			s3.62,0.39,5.06,0.82c1.44,0.42,2.53,0.89,3.29,1.41c0.76,0.51,1.36,1.29,1.82,2.31c0.45,1.03,0.74,2.1,0.86,3.2
			c0.12,1.1,0.18,2.58,0.18,4.42h-4.13c0-1.39-0.02-2.43-0.07-3.13c-0.04-0.7-0.24-1.41-0.59-2.16c-0.35-0.74-0.78-1.25-1.29-1.52
			c-0.51-0.27-1.35-0.54-2.52-0.82c-1.17-0.27-2.48-0.43-3.95-0.48c-1.47-0.04-3.44-0.07-5.92-0.07h-5.08
			c-2.48,0-4.46,0.02-5.92,0.07c-1.47,0.05-2.78,0.2-3.95,0.48c-1.17,0.27-2.01,0.54-2.54,0.82c-0.53,0.27-0.97,0.78-1.32,1.52
			c-0.35,0.74-0.54,1.46-0.59,2.16c-0.04,0.7-0.07,1.74-0.07,3.13v9.71c0,1.03,0.01,1.84,0.04,2.43s0.12,1.21,0.27,1.86
			s0.34,1.13,0.57,1.45c0.23,0.32,0.6,0.66,1.11,1.02s1.09,0.61,1.72,0.73c0.63,0.12,1.49,0.25,2.56,0.39
			c1.07,0.14,2.23,0.22,3.47,0.25c1.24,0.03,2.78,0.04,4.63,0.04h5.08c1.84,0,3.39-0.01,4.63-0.04s2.4-0.11,3.47-0.25
			c1.07-0.14,1.93-0.26,2.56-0.39c0.64-0.12,1.2-0.36,1.7-0.73s0.86-0.7,1.09-1s0.42-0.79,0.57-1.47c0.15-0.68,0.24-1.3,0.27-1.86
			s0.05-1.37,0.05-2.43v-2h-16.02v-4.13h18.06c0.79,0,1.33,0.14,1.63,0.43C950.05,858.12,950.2,858.65,950.2,859.4z"/>
		<path class="st1" d="M997.89,874.38l-3.63,1.95l-17.11-30.27h-4.27l-17.11,30.27l-3.63-1.95l17.74-31.35
			c0.42-0.73,1.03-1.09,1.81-1.09h6.72c0.79,0,1.38,0.36,1.77,1.09L997.89,874.38z M977.15,859.36h-4.31v-4.13h4.31V859.36z"/>
		<path class="st1" d="M1056.56,875.37h-4.13v-29.31h-5.22l-16.11,25.68c-0.54,0.82-1.13,1.22-1.77,1.22
			c-0.64,0-1.23-0.41-1.77-1.22l-16.47-25.68h-5.13v29.31h-4.13v-31.35c0-1.39,0.71-2.09,2.13-2.09h8.35c0.76,0,1.33,0.32,1.72,0.95
			l15.29,23.87l15.02-23.82c0.42-0.67,1-1,1.72-1h8.39c1.39,0,2.09,0.7,2.09,2.09V875.37z"/>
		<path class="st1" d="M1096.12,875.37h-30.81c-1.36,0-2.04-0.71-2.04-2.13v-29.22c0-1.39,0.68-2.09,2.04-2.09h30.76v4.13h-28.68
			v25.18h28.72V875.37z M1094.95,859.36h-4.36v-4.13h4.36V859.36z"/>
		<path class="st1" d="M1139.82,864.3v2.04c0,1.6-0.13,2.9-0.38,3.9c-0.26,1-0.7,1.89-1.34,2.68c-0.64,0.79-1.59,1.38-2.86,1.77
			c-1.27,0.39-2.81,0.69-4.63,0.88c-1.81,0.2-4.13,0.29-6.94,0.29h-6.9c-4.57,0-7.97-0.29-10.21-0.86
			c-2.24-0.57-3.78-1.55-4.63-2.93c-0.85-1.38-1.27-3.47-1.27-6.28v-1.13h4.13v1.04c0,1.36,0.13,2.41,0.39,3.15
			c0.26,0.74,0.85,1.34,1.79,1.79c0.94,0.45,2.11,0.74,3.52,0.86s3.46,0.18,6.15,0.18h6.94c3.6,0,6.22-0.14,7.85-0.41
			c1.63-0.27,2.75-0.76,3.36-1.45c0.6-0.7,0.91-1.81,0.91-3.36v-1.82c0-1.54-0.51-2.56-1.52-3.06c-1.01-0.5-3.17-0.75-6.47-0.75
			c-1.21,0-3.37,0.04-6.49,0.11c-3.12,0.08-5.34,0.11-6.67,0.11c-1.82,0-3.35-0.05-4.61-0.16c-1.25-0.11-2.49-0.33-3.7-0.68
			c-1.21-0.35-2.18-0.83-2.9-1.45c-0.73-0.62-1.31-1.46-1.75-2.52c-0.44-1.06-0.66-2.34-0.66-3.86v-1.91c0-2.48,0.42-4.33,1.27-5.56
			c0.85-1.22,2.38-2.11,4.61-2.65c2.22-0.54,5.57-0.82,10.05-0.82h6.53c6.41,0,10.74,0.56,12.98,1.68c2.24,1.12,3.36,3.36,3.36,6.72
			v0.95h-4.13v-0.59c0-1.88-0.82-3.11-2.45-3.7s-4.86-0.88-9.67-0.88h-6.85c-3.39,0-5.85,0.12-7.4,0.36
			c-1.54,0.24-2.62,0.7-3.24,1.36c-0.62,0.67-0.93,1.71-0.93,3.13v1.86c0,1.82,0.61,3.03,1.82,3.65s3.8,0.93,7.76,0.93
			c1.45,0,4.06-0.04,7.83-0.14c3.77-0.09,6.07-0.14,6.92-0.14c1.6,0,2.97,0.1,4.11,0.29c1.13,0.2,2.21,0.55,3.24,1.07
			c1.03,0.52,1.8,1.29,2.31,2.34C1139.56,861.42,1139.82,862.73,1139.82,864.3z"/>
	</g>
</g>
<g>
	<polygon points="1153.33,195.32 1287.9,422.36 1158.57,646.37 894.67,643.35 760.1,416.31 889.43,192.3 	"/>
	<path class="st2" d="M1140.74,217.13l-238.21-2.73L785.79,416.6l121.47,204.93l238.21,2.73l116.74-202.2L1140.74,217.13z
		 M1144.88,242.26c14.5,25.02,29,50.03,43.49,75.05c16.93,29.24,33.86,58.51,50.77,87.76c1.18,2.05,2.67,3.99,3.48,6.17
		c1.65,4.48,2.6,8.17-4.99,7.31c-19.86-2.27-39.75-4.09-59.67-5.64c-5.55-0.44-7.71-2.58-8.17-7.83
		c-1.39-15.98-3.41-32.29-6.75-47.64c-8.02-36.96-12.21-74.38-19.61-111.35C1143.19,244.84,1142.6,243.51,1144.88,242.26z
		 M1135.88,233.03c8.94,55.92,18.39,111.77,27.64,167.64c0.32,1.97,0.38,3.96,0.73,7.68c-67.94-39.22-134.36-77.57-202.69-117.02
		c16.19-6.16,30.7-11.75,45.25-17.22c39.83-14.97,79.68-29.92,119.54-44.85C1130.56,227.68,1134.51,224.41,1135.88,233.03z
		 M914.23,227.49c1.45-1.95,5.06-2.64,8.29-2.6c14.54,0.21,29.08,0.2,43.61,0.22c49.67,0.06,99.33,0.09,148.99,0.14
		c0.25,0.67,0.48,1.35,0.73,2.02c-22.74,8.58-45.47,17.19-68.22,25.73c-27.71,10.41-55.51,20.58-83.1,31.28
		c-6.65,2.58-10.61,2.27-14.92-4.29c-10.23-15.55-21.36-30.52-32.03-45.77C916.08,232.09,912.62,229.65,914.23,227.49z
		 M906.64,228.47c14.17,19.95,27.37,38.74,40.84,57.35c3.78,5.22,0,7.19-3.16,9.45c-18.1,12.9-35.7,26.56-53.1,40.25
		c-21.37,16.82-43.13,33.2-64.21,50.39c-5.55,4.52-11.48,8.59-18.14,11.91C841.27,341.71,873.66,285.59,906.64,228.47z
		 M808.1,407.31c47.37-36.06,94.3-72.66,143.55-110.75c0.96,77.78,1.87,153,2.79,228.22c-4,1.66-5.89-1.46-8.13-3.1
		c-45.8-33.49-91.49-67.13-137.39-100.5C802.11,416.22,800.11,413.39,808.1,407.31z M948.75,543.06
		c-12.68,20.57-24.39,41.76-38.13,65.56c-35.44-61.13-69.77-120.36-104.1-179.58c0.61-0.49,1.21-0.99,1.82-1.49
		c16.64,12.14,33.29,24.24,49.92,36.39c28.87,21.08,57.56,42.4,86.68,63.12C951.86,531.99,953.37,535.56,948.75,543.06z
		 M960.12,528.1c-0.64-50.81-1.27-99.52-1.89-148.24c-0.3-25.02-0.3-50.04-1.02-75.07c-0.25-8.73,2.17-8.48,8.76-4.63
		c38.86,22.67,77.88,45.07,116.85,67.57c24.31,14.04,48.57,28.16,72.94,42.09c5.29,3.02,6.69,5.04,0.43,8.54
		c-64.08,35.81-128.09,71.78-192.11,107.7C963.23,526.54,962.35,526.95,960.12,528.1z M915.19,611.36
		c14.33-24.83,27.12-46.57,39.44-68.58c3.1-5.54,6.36-5.31,11.45-3.04c46.07,20.49,92.19,40.83,138.3,61.22
		c6.19,2.74,12.41,5.44,18.61,8.16c-0.06,0.86-0.12,1.7-0.18,2.55C1054.45,611.57,986.1,611.47,915.19,611.36z M1129.87,606.26
		c-29.53-13.79-59.61-26.38-89.22-40.04c-22.45-10.36-45.42-19.96-68.34-29.46c-2.3-0.96-6.06-1.08-5.95-4.5
		c0.09-2.52,3.35-2.79,5.31-3.87c40.06-21.95,79.54-44.89,119.72-66.67c21.34-11.56,42.52-23.67,63.34-36.23
		c2.74-1.65,5.73-2.92,10.27-5.2c-3.3,24.12-6.37,46.4-9.39,68.67c-5.06,37.26-10.33,74.48-14.95,111.8
		C1139.62,609.23,1136.36,609.29,1129.87,606.26z M1150.61,593.91c-0.45,0.78-1.23,1.36-1.86,2.04c-0.7-0.18-1.4-0.36-2.09-0.55
		c4.8-33.49,9.71-66.96,14.35-100.48c3.08-22.29,6.27-44.58,8.3-66.99c0.82-9.12,4.3-10.64,12.64-9.62
		c19.17,2.34,38.42,3.79,57.64,5.61c3.75,0.35,8.01-0.1,4.09,6.02c-1.06,1.66-1.09,4.91-2.4,7.19
		C1211.06,489.39,1180.85,541.66,1150.61,593.91z"/>
</g>
</svg>
